<svg xmlns="http://www.w3.org/2000/svg" width="24" height="17" viewBox="0 0 24 17"><defs><style>.a{fill:rgba(0,0,0,0.37);}</style></defs><g transform="translate(-7 -19)"><g transform="translate(7 19)"><path class="a" d="M19,971.362a7.022,7.022,0,0,0-4.936,2.005,6.781,6.781,0,0,0-2,4.053,5.479,5.479,0,0,0,.515,10.942H26.256a4.662,4.662,0,1,0,0-9.323h-.331a6.783,6.783,0,0,0-2-5.672A7,7,0,0,0,19,971.362Zm0,5.758a.493.493,0,0,1,.375.137L22.445,980a.55.55,0,0,1,.044.78.6.6,0,0,1-.794.034L19.558,978.9v5.9a.558.558,0,0,1-1.116,0v-5.9l-2.137,1.911a.591.591,0,0,1-.794-.034.556.556,0,0,1,.044-.78l3.07-2.742A.613.613,0,0,1,19,977.12Z" transform="translate(-7 -971.362)"/></g></g></svg>